HIERARCHY
ROOT Hips
{
	OFFSET 228.634003 92.561920 -263.051910
	CHANNELS 6 Xposition Yposition Zposition Zrotation Yrotation Xrotation 
	JOINT LeftUpLeg
	{
		OFFSET 0.103458 1.857820 10.548502
		CHANNELS 3 Zrotation Yrotation Xrotation
		JOINT LeftLeg
		{
			OFFSET 43.500000 -0.000023 -0.000011
			CHANNELS 3 Zrotation Yrotation Xrotation
			JOINT LeftFoot
			{
				OFFSET 42.372192 0.000038 0.000002
				CHANNELS 3 Zrotation Yrotation Xrotation
				JOINT LeftToe
				{
					OFFSET 17.299992 -0.000004 0.000006
					CHANNELS 3 Zrotation Yrotation Xrotation
					End Site
					{
						OFFSET 0.000000 0.000000 0.000000
					}
				}
			}
		}
	}
	JOINT RightUpLeg
	{
		OFFSET 0.103461 1.857814 -10.548508
		CHANNELS 3 Zrotation Yrotation Xrotation
		JOINT RightLeg
		{
			OFFSET 43.500042 -0.000015 0.000008
			CHANNELS 3 Zrotation Yrotation Xrotation
			JOINT RightFoot
			{
				OFFSET 42.372253 0.000008 0.000006
				CHANNELS 3 Zrotation Yrotation Xrotation
				JOINT RightToe
				{
					OFFSET 17.299973 -0.000014 0.000011
					CHANNELS 3 Zrotation Yrotation Xrotation
					End Site
					{
						OFFSET 0.000000 0.000000 0.000000
					}
				}
			}
		}
	}
	JOINT Spine
	{
		OFFSET 6.901966 -2.603737 -0.000007
		CHANNELS 3 Zrotation Yrotation Xrotation
		JOINT Spine1
		{
			OFFSET 12.588102 0.000017 0.000001
			CHANNELS 3 Zrotation Yrotation Xrotation
			JOINT Spine2
			{
				OFFSET 12.343197 -0.000013 0.000000
				CHANNELS 3 Zrotation Yrotation Xrotation
				JOINT Neck
				{
					OFFSET 25.832905 -0.000008 0.000000
					CHANNELS 3 Zrotation Yrotation Xrotation
					JOINT Head
					{
						OFFSET 11.766610 0.000009 -0.000002
						CHANNELS 3 Zrotation Yrotation Xrotation
						End Site
						{
							OFFSET 0.000000 0.000000 0.000000
						}
					}
				}
				JOINT LeftShoulder
				{
					OFFSET 19.745903 -1.480377 6.000115
					CHANNELS 3 Zrotation Yrotation Xrotation
					JOINT LeftArm
					{
						OFFSET 11.284125 -0.000014 -0.000024
						CHANNELS 3 Zrotation Yrotation Xrotation
						JOINT LeftForeArm
						{
							OFFSET 33.000046 -0.000012 0.000029
							CHANNELS 3 Zrotation Yrotation Xrotation
							JOINT LeftHand
							{
								OFFSET 25.199989 0.000034 0.000012
								CHANNELS 3 Zrotation Yrotation Xrotation
								End Site
								{
									OFFSET 0.000000 0.000000 0.000000
								}
							}
						}
					}
				}
				JOINT RightShoulder
				{
					OFFSET 19.746098 -1.480362 -6.000071
					CHANNELS 3 Zrotation Yrotation Xrotation
					JOINT RightArm
					{
						OFFSET 11.284137 -0.000006 -0.000008
						CHANNELS 3 Zrotation Yrotation Xrotation
						JOINT RightForeArm
						{
							OFFSET 33.000095 0.000017 0.000000
							CHANNELS 3 Zrotation Yrotation Xrotation
							JOINT RightHand
							{
								OFFSET 25.199778 0.000144 0.000423
								CHANNELS 3 Zrotation Yrotation Xrotation
								End Site
								{
									OFFSET 0.000000 0.000000 0.000000
								}
							}
						}
					}
				}
			}
		}
	}
}
MOTION
Frames: 13
Frame Time: 0.033333
-28.644569 15.437010 219.911102 153.226510 -60.083309 119.133908 154.073358 -13.799196 -177.733694 -65.029452 -3.870245 -9.838260 68.782778 2.371710 -13.662832 21.454553 0.003094 0.000005 98.032332 4.102711 -157.862993 -123.822300 -5.692081 9.902072 69.023139 -2.487434 12.577714 21.454562 -0.003110 -0.000024 14.189390 1.795699 -1.177092 18.341884 3.755158 -2.055173 18.023271 3.742818 -2.077813 18.090444 -9.577572 -13.051214 -21.639445 2.112960 -14.929465 76.370135 -74.321262 103.096583 -82.498454 -0.880100 -18.038711 -83.528344 -10.738032 2.771505 -33.120841 -28.222132 54.033087 171.888418 75.757282 -6.837818 -26.952150 -77.747374 34.502735 -131.024407 -10.540502 -3.374130 -25.441206 15.937111 -38.352472 
-27.536770 15.530000 219.816101 149.054207 -59.634204 119.481319 154.057020 -15.179091 -177.364358 -62.416823 -4.071080 -10.114302 68.501142 2.481916 -13.870011 21.454555 0.003090 0.000012 98.136445 0.851803 -157.668688 -125.233294 -5.559466 6.508728 69.675730 -0.206529 12.092028 21.454562 -0.003104 -0.000008 14.275414 1.709009 -0.821746 18.525715 3.527429 -1.359459 18.207058 3.519271 -1.380744 19.908779 -9.148972 -13.379897 -22.074852 3.209804 -15.634733 77.448997 -75.021889 101.979205 -82.693995 -0.288993 -18.974108 -85.493184 -9.842464 2.795048 -33.221787 -27.421592 55.317593 174.928303 75.069332 -3.750377 -21.871753 -76.212870 26.480292 -131.796901 -9.251240 -3.488764 -25.172106 14.161276 -39.150081 
-26.431200 15.589980 219.602905 144.802087 -59.275974 120.168504 153.520974 -16.522911 -176.863787 -60.283980 -4.041466 -10.340768 68.608192 2.546681 -14.205076 21.454553 0.003091 0.000006 97.863702 -1.808591 -157.888538 -126.343405 -5.433918 1.747843 71.035436 2.771575 10.920076 21.454557 -0.003107 -0.000019 14.329730 1.580027 -0.671124 18.638724 3.247381 -1.079019 18.320133 3.240937 -1.098609 21.214725 -9.475028 -13.442936 -22.271591 3.578663 -15.779976 77.343191 -75.700879 102.029940 -82.378864 0.135258 -20.218192 -87.696385 -8.644990 2.808259 -32.221414 -26.624422 56.687814 176.744887 74.565045 -1.903981 -19.874440 -74.273403 21.381364 -132.342101 -7.943547 -3.595978 -24.168442 12.439597 -40.026551 
-25.349340 15.558450 219.355301 140.889809 -58.725652 121.019696 152.744026 -17.686597 -175.946629 -58.527652 -3.971567 -10.744419 69.016432 3.007665 -13.877869 21.454557 0.003090 0.000001 97.672935 -4.147505 -156.743416 -127.226507 -5.482271 -0.447870 71.844970 3.793040 9.401446 21.454558 -0.003110 -0.000016 14.427724 1.443761 -0.679123 18.834383 2.978670 -1.114210 18.515890 2.972024 -1.132174 21.966573 -10.043543 -13.517068 -22.129014 3.818218 -15.886863 77.438410 -76.849436 101.845518 -82.395140 0.012048 -21.000585 -89.684707 -7.426771 2.810849 -30.842583 -26.156488 58.078861 177.361353 74.288061 -1.279089 -18.508428 -72.172266 17.125499 -133.138009 -6.566934 -3.716682 -22.699258 11.170600 -40.661346 
-24.527250 15.509370 219.123199 136.775522 -58.065214 122.136487 151.553401 -19.006897 -175.016931 -57.172355 -3.772445 -11.562345 68.955520 3.540506 -14.036006 21.454550 0.003094 -0.000005 97.005789 -6.734106 -154.054766 -127.742296 -5.621098 1.264571 71.914543 2.768640 10.145869 21.454562 -0.003108 -0.000022 14.526820 1.277199 -0.668261 19.032886 2.646808 -1.117339 18.714484 2.640150 -1.133297 22.561102 -10.497447 -13.642423 -22.181128 4.469628 -16.237726 77.718072 -77.791640 101.494917 -82.872359 -0.447159 -21.010020 -90.551807 -6.893413 2.813231 -29.629880 -25.584422 59.451988 178.038880 74.020229 -0.590510 -18.868381 -69.728349 15.451732 -133.770908 -5.941849 -3.781057 -22.813493 11.809753 -39.236558 
-23.760521 15.436220 218.735199 132.615308 -57.293136 123.571291 149.656193 -20.415606 -173.899990 -56.810457 -3.682905 -12.338172 68.819156 4.187150 -13.755294 21.454551 0.003091 0.000008 96.148621 -8.617297 -151.842318 -128.091592 -5.690328 1.574685 72.229640 2.903510 11.347745 21.454555 -0.003108 -0.000009 14.608731 1.128971 -0.681786 19.196629 2.355318 -1.166829 18.878305 2.348363 -1.181041 22.901800 -10.716626 -13.753477 -22.265269 5.140936 -16.607612 77.349529 -78.348847 101.815198 -83.662058 -0.980039 -20.929139 -90.764615 -6.795772 2.815621 -28.379766 -24.987878 60.835785 177.370724 73.871877 -1.278293 -19.647475 -66.985291 15.541815 -134.580709 -5.403178 -3.845660 -21.150659 13.077967 -37.895962 
-23.029940 15.391760 218.197403 128.673606 -56.603011 125.049398 147.078807 -21.741390 -172.783883 -57.587429 -3.683151 -12.687018 69.486062 4.417456 -14.035322 21.454553 0.003089 -0.000006 94.987707 -10.089088 -149.892463 -128.762412 -5.711791 1.030126 72.419280 3.129925 10.886127 21.454555 -0.003112 -0.000013 14.637777 0.927664 -0.794342 19.253192 1.974490 -1.423231 18.935012 1.965994 -1.435129 22.780598 -10.797670 -13.793150 -22.255483 5.669389 -16.874597 75.187310 -78.835703 103.914607 -84.751316 -1.497058 -20.664447 -90.318262 -7.143974 2.817285 -27.179233 -24.623351 62.280827 176.979764 73.605301 -1.684841 -21.212027 -63.857132 17.279318 -134.774085 -5.326490 -3.857555 -20.638641 14.480606 -34.980882 
-22.354271 15.345100 217.661697 124.962996 -55.543973 126.544103 143.999403 -23.245000 -172.029311 -59.724069 -3.364082 -12.278995 70.024937 4.153290 -14.060557 21.454553 0.003090 0.000002 94.231598 -11.240490 -147.924453 -129.475689 -5.711253 -0.040414 72.669825 3.504187 9.717266 21.454557 -0.003106 -0.000020 14.686409 0.718804 -1.042025 19.348130 1.601716 -1.949175 19.030095 1.590046 -1.958796 22.582972 -11.067428 -13.824448 -21.830821 6.582111 -17.254687 73.369045 -79.021389 105.697273 -85.458036 -2.063584 -19.922470 -89.105712 -7.886895 2.817479 -26.305294 -24.489324 63.534399 176.825087 73.249421 -1.851280 -23.179758 -60.306950 19.478521 -134.236699 -5.577328 -3.821916 -20.547618 16.502598 -34.609709 
-21.706720 15.264100 217.076904 121.331098 -54.106085 128.098791 140.565034 -25.027206 -171.289629 -62.845691 -2.944475 -11.339384 70.627769 3.571459 -13.880082 21.454548 0.003092 -0.000006 93.649653 -12.307105 -145.528655 -130.116702 -5.745077 -0.493177 72.997558 3.671130 9.312674 21.454560 -0.003107 -0.000016 14.696986 0.473174 -1.362766 19.368642 1.167858 -2.627039 19.050837 1.152103 -2.634023 23.100285 -10.624959 -13.880404 -21.807655 7.340416 -17.599026 71.471940 -78.693922 107.595014 -85.706313 -2.366420 -18.751089 -87.149976 -9.073933 2.814237 -25.992379 -24.432736 64.313792 178.906382 73.662129 0.291421 -25.096810 -57.726928 20.107367 -132.450591 -5.209978 -3.783029 -20.795011 16.779657 -35.267532 
-21.092831 15.138400 216.500107 118.195399 -52.322668 129.249295 137.302566 -26.768905 -169.948671 -66.448786 -2.740625 -10.397108 71.224024 3.044007 -13.530444 21.454553 0.003091 -0.000003 93.318457 -13.389095 -142.817398 -130.606208 -5.848368 -0.354099 73.189377 3.541528 9.288050 21.454560 -0.003108 -0.000022 14.751178 0.171709 -1.743376 19.480265 0.634599 -3.432808 19.162768 0.614005 -3.436555 23.380082 -9.673810 -13.825597 -21.955291 7.914273 -17.807459 68.943861 -78.231860 110.121986 -85.639323 -2.575547 -17.326955 -84.740368 -10.502288 2.808291 -25.716501 -24.489759 64.885629 -178.305421 74.361383 3.160310 -24.837278 -57.901426 19.434123 -130.647203 -4.921516 -3.736751 -19.564351 14.647561 -37.296607 
-20.456169 14.985340 215.964096 115.677887 -50.490958 129.895704 134.266998 -28.107193 -168.480003 -70.324024 -2.421502 -9.868885 71.677399 2.772405 -13.261652 21.454553 0.003090 -0.000010 93.189141 -14.422192 -140.308505 -131.099006 -5.961624 -0.276605 73.359374 3.470841 9.291888 21.454558 -0.003109 -0.000019 14.841461 -0.155639 -2.171464 19.668974 0.060315 -4.337589 19.351850 0.034283 -4.337845 22.773107 -9.097517 -13.441762 -21.775449 8.808483 -17.803656 66.069239 -77.858822 112.980276 -85.346581 -2.574515 -16.235559 -82.580095 -11.776790 2.803062 -25.041792 -24.350733 65.793894 -175.034471 74.549131 6.512796 -19.893203 -59.527298 15.097244 -131.494392 -4.775477 -3.777638 -20.953758 14.393640 -42.096355 
-19.835520 14.830960 215.480194 113.486209 -48.779210 130.162492 131.739213 -29.000700 -167.596873 -73.876433 -1.625090 -9.419287 72.538549 2.668273 -12.728907 21.454553 0.003090 0.000003 93.011645 -15.427594 -138.116670 -131.594891 -6.038486 -0.418864 73.386121 3.652198 9.533837 21.454560 -0.003109 -0.000026 14.919300 -0.492048 -2.565697 19.838247 -0.536645 -5.177623 19.521526 -0.567719 -5.174282 22.279059 -8.149106 -13.004812 -22.201417 9.085741 -17.554681 63.406401 -77.337310 115.634857 -84.711039 -2.295691 -15.570489 -81.010825 -12.742738 2.798299 -24.113522 -23.944388 66.909141 -167.764227 73.907585 13.961101 -8.445279 -61.306931 4.719362 -134.592607 -4.425038 -3.911761 -25.876411 15.162255 -45.420802 
-19.257380 14.651310 214.996994 111.589916 -47.211111 130.107604 129.710538 -29.447299 -166.641234 -76.901660 -1.182619 -9.192675 73.030240 2.669716 -12.282167 21.454551 0.003094 -0.000005 92.656229 -16.444196 -135.892925 -132.155295 -6.115090 -0.208955 73.416242 3.584953 9.800146 21.454555 -0.003107 -0.000009 15.032336 -0.794364 -3.025466 20.081135 -1.051270 -6.142967 19.764944 -1.088136 -6.136513 21.402901 -7.426096 -12.271108 -22.516239 9.418870 -17.004483 61.603047 -77.187701 117.417331 -83.548991 -2.362327 -15.268451 -80.200272 -13.208554 2.794409 -22.965596 -23.364766 68.174475 -157.819826 72.858659 24.174707 4.691718 -61.118329 -6.444108 -136.780713 -3.902702 -4.022062 -31.413744 19.464786 -48.999907 
